<svg width="40" height="40" viewBox="0 0 40 40" fill="none" xmlns="http://www.w3.org/2000/svg">
<rect width="40" height="40" rx="8" fill="#0F172A"/>
<path d="M15.3713 17.8153C15.3239 17.2945 15.1132 16.8897 14.7392 16.6009C14.3699 16.3073 13.8419 16.1605 13.1554 16.1605C12.7008 16.1605 12.322 16.2197 12.019 16.3381C11.716 16.4564 11.4887 16.6198 11.3372 16.8281C11.1857 17.0317 11.1075 17.2661 11.1028 17.5312C11.0933 17.7491 11.1359 17.9408 11.2306 18.1065C11.3301 18.2723 11.4721 18.419 11.6568 18.5469C11.8462 18.67 12.0734 18.7789 12.3386 18.8736C12.6038 18.9683 12.902 19.0511 13.2335 19.1222L14.4835 19.4062C15.2032 19.5625 15.8377 19.7708 16.3869 20.0312C16.9409 20.2917 17.4049 20.6018 17.7789 20.9616C18.1577 21.3215 18.4442 21.7358 18.6383 22.2045C18.8324 22.6733 18.9319 23.1989 18.9366 23.7812C18.9319 24.6998 18.6999 25.4882 18.2406 26.1463C17.7813 26.8045 17.1208 27.3087 16.2591 27.6591C15.402 28.0095 14.3675 28.1847 13.1554 28.1847C11.9385 28.1847 10.8779 28.0024 9.97354 27.6378C9.06919 27.2732 8.36606 26.7192 7.86417 25.9759C7.36228 25.2325 7.10423 24.2926 7.09002 23.1562H10.4565C10.4849 23.625 10.6104 24.0156 10.8329 24.3281C11.0555 24.6406 11.3609 24.8774 11.7491 25.0384C12.1421 25.1993 12.5967 25.2798 13.1127 25.2798C13.5862 25.2798 13.9887 25.2159 14.3201 25.0881C14.6563 24.9602 14.9144 24.7827 15.0943 24.5554C15.2742 24.3281 15.3665 24.0677 15.3713 23.7741C15.3665 23.4995 15.2813 23.2652 15.1156 23.071C14.9499 22.8722 14.6942 22.7017 14.3485 22.5597C14.0076 22.4129 13.572 22.2779 13.0417 22.1548L11.5218 21.7997C10.2624 21.5109 9.27042 21.0445 8.54599 20.4006C7.82156 19.7519 7.46171 18.8759 7.46644 17.7727C7.46171 16.8731 7.70318 16.0848 8.19087 15.4077C8.67856 14.7306 9.35328 14.2027 10.215 13.8239C11.0768 13.4451 12.0592 13.2557 13.1625 13.2557C14.2894 13.2557 15.2671 13.4474 16.0957 13.831C16.929 14.2098 17.5753 14.7424 18.0346 15.429C18.4939 16.1155 18.7283 16.911 18.7377 17.8153H15.3713ZM23.4093 28H19.6309L24.5385 13.4545H29.2189L34.1266 28H30.3482L26.932 17.1193H26.8184L23.4093 28ZM22.905 22.2756H30.8027V24.946H22.905V22.2756Z" fill="white"/>
<line x1="16.5" y1="34" x2="24.5" y2="34" stroke="#D97706" stroke-width="2" stroke-linecap="round"/>
</svg>
